<mxfile host="app.diagrams.net" modified="2021-07-14T00:49:41.046Z" agent="5.0 (Macintosh; Intel Mac OS X 10_15_7) AppleWebKit/537.36 (KHTML, like Gecko) Chrome/91.0.4472.114 Safari/537.36" etag="c6QtIcW9PQs1hK8rs8H9" version="14.8.5" type="github">
  <diagram id="TxOR8wTqyYN5a8GMDEJV" name="Page-1">
    <mxGraphModel dx="946" dy="536" grid="1" gridSize="10" guides="1" tooltips="1" connect="1" arrows="1" fold="1" page="1" pageScale="1" pageWidth="827" pageHeight="1169" math="0" shadow="0">
      <root>
        <mxCell id="0" />
        <mxCell id="1" parent="0" />
        <mxCell id="EGGXxvqWK4PNYSUtuNdD-30" value="" style="shape=ext;double=1;rounded=0;whiteSpace=wrap;html=1;fontSize=12;verticalAlign=bottom;" parent="1" vertex="1">
          <mxGeometry x="94" y="80" width="640" height="280" as="geometry" />
        </mxCell>
        <mxCell id="EGGXxvqWK4PNYSUtuNdD-5" value="&lt;font style=&quot;font-size: 20px&quot;&gt;SDK&lt;/font&gt;" style="rounded=0;whiteSpace=wrap;html=1;fillColor=#d5e8d4;strokeColor=#82b366;labelPosition=center;verticalLabelPosition=top;align=center;verticalAlign=bottom;" parent="1" vertex="1">
          <mxGeometry x="254" y="120" width="320" height="200" as="geometry" />
        </mxCell>
        <mxCell id="EGGXxvqWK4PNYSUtuNdD-15" style="edgeStyle=orthogonalEdgeStyle;rounded=0;orthogonalLoop=1;jettySize=auto;html=1;entryX=0;entryY=0.5;entryDx=0;entryDy=0;exitX=0.5;exitY=0;exitDx=0;exitDy=0;" parent="1" source="EGGXxvqWK4PNYSUtuNdD-1" target="EGGXxvqWK4PNYSUtuNdD-4" edge="1">
          <mxGeometry relative="1" as="geometry" />
        </mxCell>
        <mxCell id="EGGXxvqWK4PNYSUtuNdD-16" value="获取公钥" style="edgeLabel;html=1;align=center;verticalAlign=middle;resizable=0;points=[];" parent="EGGXxvqWK4PNYSUtuNdD-15" vertex="1" connectable="0">
          <mxGeometry x="-0.2308" relative="1" as="geometry">
            <mxPoint as="offset" />
          </mxGeometry>
        </mxCell>
        <mxCell id="EGGXxvqWK4PNYSUtuNdD-22" style="edgeStyle=orthogonalEdgeStyle;rounded=0;orthogonalLoop=1;jettySize=auto;html=1;entryX=0;entryY=0.5;entryDx=0;entryDy=0;fontSize=12;exitX=0.5;exitY=1;exitDx=0;exitDy=0;" parent="1" source="EGGXxvqWK4PNYSUtuNdD-1" target="EGGXxvqWK4PNYSUtuNdD-21" edge="1">
          <mxGeometry relative="1" as="geometry" />
        </mxCell>
        <mxCell id="EGGXxvqWK4PNYSUtuNdD-25" value="获取证书信息" style="edgeLabel;html=1;align=center;verticalAlign=middle;resizable=0;points=[];fontSize=12;" parent="EGGXxvqWK4PNYSUtuNdD-22" vertex="1" connectable="0">
          <mxGeometry x="-0.1648" y="1" relative="1" as="geometry">
            <mxPoint as="offset" />
          </mxGeometry>
        </mxCell>
        <mxCell id="EGGXxvqWK4PNYSUtuNdD-1" value="软介质" style="rounded=0;whiteSpace=wrap;html=1;" parent="1" vertex="1">
          <mxGeometry x="274" y="217" width="80" height="40" as="geometry" />
        </mxCell>
        <mxCell id="EGGXxvqWK4PNYSUtuNdD-2" value="SSO&lt;br&gt;SERVER" style="rounded=0;whiteSpace=wrap;html=1;fillColor=#f8cecc;strokeColor=#b85450;" parent="1" vertex="1">
          <mxGeometry x="614" y="120" width="80" height="200" as="geometry" />
        </mxCell>
        <mxCell id="EGGXxvqWK4PNYSUtuNdD-4" value="FIDO" style="rounded=0;whiteSpace=wrap;html=1;" parent="1" vertex="1">
          <mxGeometry x="375" y="131" width="80" height="40" as="geometry" />
        </mxCell>
        <mxCell id="EGGXxvqWK4PNYSUtuNdD-6" value="CDS&lt;br&gt;SERVER" style="rounded=0;whiteSpace=wrap;html=1;fillColor=#dae8fc;strokeColor=#6c8ebf;" parent="1" vertex="1">
          <mxGeometry x="134" y="120" width="80" height="200" as="geometry" />
        </mxCell>
        <mxCell id="EGGXxvqWK4PNYSUtuNdD-8" value="" style="shape=flexArrow;endArrow=classic;html=1;entryX=1;entryY=0.25;entryDx=0;entryDy=0;exitX=0;exitY=0.25;exitDx=0;exitDy=0;width=4;endSize=2.33;fillColor=#dae8fc;strokeColor=#6c8ebf;" parent="1" edge="1">
          <mxGeometry width="50" height="50" relative="1" as="geometry">
            <mxPoint x="254" y="211" as="sourcePoint" />
            <mxPoint x="214" y="211" as="targetPoint" />
          </mxGeometry>
        </mxCell>
        <mxCell id="EGGXxvqWK4PNYSUtuNdD-12" value="初始化终端" style="edgeLabel;html=1;align=center;verticalAlign=middle;resizable=0;points=[];" parent="EGGXxvqWK4PNYSUtuNdD-8" vertex="1" connectable="0">
          <mxGeometry x="0.15" y="1" relative="1" as="geometry">
            <mxPoint x="23" y="-15" as="offset" />
          </mxGeometry>
        </mxCell>
        <mxCell id="EGGXxvqWK4PNYSUtuNdD-13" style="edgeStyle=orthogonalEdgeStyle;rounded=0;orthogonalLoop=1;jettySize=auto;html=1;entryX=0.5;entryY=1;entryDx=0;entryDy=0;" parent="1" source="EGGXxvqWK4PNYSUtuNdD-9" target="EGGXxvqWK4PNYSUtuNdD-4" edge="1">
          <mxGeometry relative="1" as="geometry" />
        </mxCell>
        <mxCell id="EGGXxvqWK4PNYSUtuNdD-17" value="&lt;font style=&quot;font-size: 12px;&quot;&gt;绑定Touch ID&lt;br style=&quot;font-size: 12px;&quot;&gt;Face ID&lt;/font&gt;" style="edgeLabel;html=1;align=center;verticalAlign=middle;resizable=0;points=[];fontSize=12;" parent="EGGXxvqWK4PNYSUtuNdD-13" vertex="1" connectable="0">
          <mxGeometry x="0.08" y="2" relative="1" as="geometry">
            <mxPoint x="1" y="3" as="offset" />
          </mxGeometry>
        </mxCell>
        <mxCell id="EGGXxvqWK4PNYSUtuNdD-9" value="生物特征校验" style="rounded=0;whiteSpace=wrap;html=1;" parent="1" vertex="1">
          <mxGeometry x="374" y="217" width="80" height="40" as="geometry" />
        </mxCell>
        <mxCell id="EGGXxvqWK4PNYSUtuNdD-11" value="创建密钥对&lt;br&gt;安装证书" style="shape=flexArrow;endArrow=classic;html=1;entryX=0;entryY=0.5;entryDx=0;entryDy=0;width=4;endSize=2.32;fillColor=#d5e8d4;strokeColor=#82b366;" parent="1" target="EGGXxvqWK4PNYSUtuNdD-1" edge="1">
          <mxGeometry x="-0.3908" y="-19" width="50" height="50" relative="1" as="geometry">
            <mxPoint x="216" y="238" as="sourcePoint" />
            <mxPoint x="254" y="247" as="targetPoint" />
            <mxPoint as="offset" />
          </mxGeometry>
        </mxCell>
        <mxCell id="EGGXxvqWK4PNYSUtuNdD-21" value="CAS" style="rounded=0;whiteSpace=wrap;html=1;" parent="1" vertex="1">
          <mxGeometry x="374" y="268" width="80" height="40" as="geometry" />
        </mxCell>
        <mxCell id="EGGXxvqWK4PNYSUtuNdD-26" value="" style="shape=flexArrow;endArrow=classic;html=1;fontSize=12;exitX=1;exitY=0.5;exitDx=0;exitDy=0;width=5;endSize=3.67;fillColor=#f8cecc;strokeColor=#b85450;" parent="1" edge="1">
          <mxGeometry width="50" height="50" relative="1" as="geometry">
            <mxPoint x="454" y="287.5" as="sourcePoint" />
            <mxPoint x="614" y="287.5" as="targetPoint" />
          </mxGeometry>
        </mxCell>
        <mxCell id="EGGXxvqWK4PNYSUtuNdD-27" value="创建签名数据" style="edgeLabel;html=1;align=center;verticalAlign=middle;resizable=0;points=[];" parent="1" vertex="1" connectable="0">
          <mxGeometry x="561" y="274" as="geometry" />
        </mxCell>
        <mxCell id="EGGXxvqWK4PNYSUtuNdD-28" value="" style="shape=flexArrow;endArrow=classic;html=1;fontSize=12;exitX=1;exitY=0.5;exitDx=0;exitDy=0;width=5;endSize=3.67;fillColor=#f8cecc;strokeColor=#b85450;" parent="1" edge="1">
          <mxGeometry width="50" height="50" relative="1" as="geometry">
            <mxPoint x="455" y="151.5" as="sourcePoint" />
            <mxPoint x="615" y="151.5" as="targetPoint" />
          </mxGeometry>
        </mxCell>
        <mxCell id="EGGXxvqWK4PNYSUtuNdD-29" value="创建FIDO认证数据" style="edgeLabel;html=1;align=center;verticalAlign=middle;resizable=0;points=[];" parent="1" vertex="1" connectable="0">
          <mxGeometry x="548" y="138" as="geometry" />
        </mxCell>
      </root>
    </mxGraphModel>
  </diagram>
</mxfile>
